# xmcd
#
# Track frame offsets:
#	150
#	22875
#	43710
#	62068
#	86160
#	113088
#	133998
#	151013
#
# Disc length: 2360 seconds
# Revision: 8
# Processed by: cddbd v1.5.2PL0 Copyright (c) Steve Scherf et al.
# Submitted via: dBpowerAMP V12.0
#
DISCID=61093608
DTITLE=Ry Cooder - 1970-1987
DYEAR=2013
DGENRE=Blues
TTITLE0=UFO Has Landed In The Ghetto
TTITLE1=I Need A Woman
TTITLE2=Gypsy Woman
TTITLE3=Blue Suede Shoes
TTITLE4=Mama, Don't Treat Your Daughter Mean
TTITLE5=I'm Drinking Again
TTITLE6=Which Came First
TTITLE7=That's The Way Love Turned Out For Me
EXTD=
EXTT0=
EXTT1=
EXTT2=
EXTT3=
EXTT4=
EXTT5=
EXTT6=
EXTT7=
PLAYORDER=
